<?xml version="1.0" encoding="UTF-8"?>
<!DOCTYPE svg PUBLIC "-//W3C//DTD SVG 1.1//EN" "http://www.w3.org/Graphics/SVG/1.1/DTD/svg11.dtd">
<svg version="1.1" xmlns="http://www.w3.org/2000/svg" xmlns:xlink="http://www.w3.org/1999/xlink" x="0" y="0" width="236.107" height="157.181" viewBox="0, 0, 236.107, 157.181">
  <defs>
    <linearGradient id="Gradient_1" gradientUnits="userSpaceOnUse" x1="-107.256" y1="12.929" x2="-101.958" y2="170.071" gradientTransform="matrix(-1, 0, 0, 1, 13.447, -12.91)">
      <stop offset="0" stop-color="#0093FF"/>
      <stop offset="1" stop-color="#000542" stop-opacity="0.959"/>
    </linearGradient>
  </defs>
  <g id="unicorn">
    <path d="M71.357,156.989 C75.525,155.828 70.766,147.666 65.902,147.633 C61.213,147.602 60.844,146.624 61.262,135.323 C61.715,123.089 61.937,122.711 73.147,115.121 C81.301,109.601 87.68,102.248 90.646,94.95 C91.867,91.947 93.257,89.129 93.736,88.687 C94.215,88.246 99.557,88.267 105.607,88.734 C112.694,89.281 118.741,89.21 122.607,88.534 C128.558,87.493 131.103,86.414 144.607,79.203 C151.419,75.566 151.808,75.483 159.107,76.112 C163.232,76.467 169.143,77.232 172.243,77.811 C177.694,78.829 177.9,78.985 178.482,82.506 C180.055,92.015 178.233,97.649 173.585,97.649 C172.228,97.649 170.725,98.493 170.142,99.583 C168.794,102.102 168.801,109.649 170.152,109.649 C171.38,109.649 176.107,105.109 176.107,103.93 C176.107,103.485 177.794,102.077 179.857,100.801 L183.607,98.482 L183.829,86.948 C183.952,80.604 183.618,74.603 183.088,73.613 C182.557,72.622 180.657,71.518 178.865,71.159 C172.995,69.985 166.107,67.507 166.107,66.568 C166.107,66.062 166.541,65.649 167.072,65.649 C168.455,65.649 169.872,62.646 171.575,56.111 C172.792,51.436 172.852,49.199 171.905,43.677 C170.837,37.449 170.914,36.632 172.929,32.766 C174.127,30.467 175.107,27.787 175.107,26.809 C175.107,25.831 175.767,24.157 176.575,23.09 C178.346,20.748 178.46,21.338 177.029,25.441 C176.206,27.803 176.332,30.399 177.565,36.442 C178.534,41.193 178.916,45.989 178.522,48.451 C177.771,53.152 179.433,55.649 183.313,55.649 C187.358,55.649 189.861,53.022 191.035,47.547 C191.637,44.739 194.006,38.776 196.298,34.295 C198.59,29.815 200.753,25.504 201.103,24.715 C201.454,23.927 203.285,22.762 205.174,22.126 C207.815,21.237 208.607,20.414 208.607,18.559 C208.607,16.388 208.24,16.181 204.906,16.471 L201.205,16.794 L202.139,13.537 C203.367,9.255 202.712,8.825 199.067,11.52 L196.051,13.75 L193.505,11.747 C192.104,10.645 189.627,7.906 187.999,5.659 C184.14,0.331 181.685,-0.529 174.137,0.8 C169.497,1.617 167.728,1.579 166.591,0.636 C165.775,-0.042 165.114,-0.204 165.122,0.276 C165.148,1.754 166.517,3.261 168.5,3.995 C172.239,5.379 169.11,5.849 164.122,4.652 C159.244,3.482 158.863,3.546 155.095,6.157 C152.304,8.091 150.296,8.756 148.186,8.447 C144.431,7.896 145.272,9.402 149.769,11.281 C151.649,12.066 152.928,13.128 152.611,13.641 C152.263,14.204 151.093,14.144 149.655,13.488 C147.83,12.657 146.16,12.783 142.512,14.026 C139.893,14.918 136.706,15.649 135.429,15.649 C132.208,15.649 132.527,17.298 136.107,19.149 C137.757,20.002 139.107,20.892 139.107,21.127 C139.107,21.362 136.931,21.297 134.272,20.982 C129.829,20.456 129.048,20.707 124.628,24.08 C121.983,26.1 119.208,27.518 118.463,27.232 C115.972,26.276 117.069,27.578 120.057,29.123 C121.68,29.962 123.93,30.649 125.057,30.649 C128,30.649 127.63,32.205 123.005,39.305 C118.601,46.064 113.43,49.438 104.107,51.638 C89.25,55.143 80.215,57.537 77.397,58.715 C74.608,59.881 73.719,59.834 70.629,58.36 C68.597,57.391 66.603,55.481 65.98,53.906 C63.651,48.015 62.095,46.066 57.928,43.819 C51.923,40.582 43.809,41.131 40.482,44.999 C38.113,47.752 37.949,48.428 36.146,62.794 C34.668,74.567 32.594,81.024 28.96,85.163 C26.111,88.408 25.49,88.649 19.971,88.649 C12.469,88.649 7.497,86.631 3.303,81.887 L0,78.149 L1.604,82.149 C3.262,86.284 8.11,91.987 11.607,93.916 C12.707,94.523 15.857,95.573 18.607,96.249 L23.607,97.478 L17.498,97.564 C12.677,97.631 10.213,97.056 5.813,94.836 C0.806,92.31 0.346,92.228 1.308,94.024 C3.079,97.333 11.15,105.512 14.982,107.881 C17.858,109.658 20.094,110.103 26.245,110.124 C33.349,110.147 34.204,109.919 37.763,107.051 C39.877,105.348 46.313,104.27 47.607,94.298 C48.336,88.677 47.607,76.652 47.607,76.652 C47.607,76.652 45.828,66.462 48.231,59.137 C50.103,53.428 56.357,50.572 60.546,57.122 C62.472,60.132 64.902,63.128 65.947,63.781 C67.79,64.932 67.774,65.106 65.391,69.698 C61.94,76.351 61.519,84.053 63.973,95.649 L65.984,105.149 L63.545,108.703 C62.204,110.657 59.531,113.783 57.607,115.649 C53.649,119.485 53.515,120.669 54.754,140.915 C55.313,150.059 55.652,151.558 57.254,151.977 C58.273,152.243 59.107,153.148 59.107,153.988 C59.107,154.827 59.894,155.745 60.857,156.028 C64.089,156.977 69.591,157.481 71.357,156.989 z M194.107,31.526 C194.107,29.724 194.34,29.597 195.654,30.688 C196.89,31.714 196.94,32.138 195.904,32.795 C194.12,33.927 194.107,33.918 194.107,31.526 z M119.857,146.64 C121.094,146.13 122.107,145.214 122.107,144.604 C122.107,142.866 116.449,137.649 114.564,137.649 C112.464,137.649 101.575,131.236 97.857,127.809 C93.145,123.467 94.25,117.718 101.663,108.006 C104.619,104.135 108.963,93.171 107.945,92.153 C107.754,91.963 104.908,91.658 101.62,91.477 L95.641,91.149 L92.45,97.149 C88.356,104.847 88.692,104.078 86.111,111.649 C82.161,123.237 82.094,122.872 89.206,128.32 C92.673,130.976 97.107,134.536 99.058,136.232 C101.01,137.928 103.401,139.604 104.372,139.956 C105.343,140.309 106.552,141.69 107.06,143.026 C107.568,144.361 108.349,145.671 108.795,145.936 C110.665,147.046 117.774,147.499 119.857,146.64 z M211.107,102.586 C211.107,100.326 208.34,91.329 206.664,88.136 C206.082,87.03 203.504,82.971 200.934,79.118 C198.364,75.265 195.981,70.995 195.638,69.63 C195.113,67.541 193.48,66.613 185.311,63.761 C179.974,61.898 175.134,60.197 174.556,59.981 C173.979,59.765 172.782,61.107 171.896,62.965 L170.286,66.342 L179.446,69.111 C189.979,72.296 192.014,73.835 195.543,81.289 C197.156,84.696 198.998,87.037 200.52,87.615 C203.76,88.847 204.509,91.75 202.702,96.074 L201.21,99.646 L204.89,102.147 C209.366,105.188 211.107,105.311 211.107,102.586 z M215.872,18.34 C219.967,16.513 218.348,13.183 213.976,14.441 C211.864,15.049 211.666,15.445 212.576,17.243 C213.449,18.967 214.032,19.161 215.872,18.34 z M223.272,15.887 C226.09,15.291 226.386,12.649 223.634,12.649 C222.309,12.649 221.003,13.008 220.732,13.446 C219.92,14.759 221.487,16.264 223.272,15.887 z M231.107,12.18 C231.107,11.285 230.52,10.936 229.607,11.287 C227.666,12.032 227.666,13.649 229.607,13.649 C230.432,13.649 231.107,12.988 231.107,12.18 z M236.107,10.68 C236.107,10.147 235.432,9.97 234.607,10.287 C232.686,11.024 232.686,11.649 234.607,11.649 C235.432,11.649 236.107,11.213 236.107,10.68 z" fill="url(#Gradient_1)" id="path2222"/>
  </g>
</svg>
